<svg width="251" height="257" viewBox="0 0 251 257" fill="none" xmlns="http://www.w3.org/2000/svg">
<circle cx="125.5" cy="125.5" r="125.5" fill="#D9D9D9"/>
<ellipse cx="123" cy="63" rx="50" ry="49" fill="#535353"/>
<circle cx="146" cy="56" r="10" fill="#D9D9D9"/>
<circle cx="102" cy="56" r="10" fill="#D9D9D9"/>
<rect x="75.0586" y="77.3632" width="50.3826" height="32" transform="rotate(41.9565 75.0586 77.3632)" fill="#D9D9D9"/>
<rect x="133" y="111.686" width="50.3826" height="32" transform="rotate(-41.96 133 111.686)" fill="#D9D9D9"/>
<rect x="48" y="119" width="150" height="100" rx="10" fill="#535353"/>
<rect x="192.394" y="92" width="50.3826" height="32" transform="rotate(41.9565 192.394 92)" fill="#D9D9D9"/>
<path d="M44.3941 152L123.59 223.199L100.5 239L53.5 221L15.8043 183.801L44.3941 152Z" fill="#D9D9D9"/>
<path d="M126 220.204L205.191 149L218.456 173.634L195.576 218.462L155.5 245.5L126 220.204Z" fill="#D9D9D9"/>
<rect x="17" y="125.686" width="50.3826" height="32" transform="rotate(-41.96 17 125.686)" fill="#D9D9D9"/>
<g clip-path="url(#clip0_1_36)">
<path d="M128.878 147.111L125.613 146.343C125.344 145.729 125.375 145.13 125.106 144.515L127.042 141.911L128.647 139.89L121.256 131.702L119.082 133.092L116.293 134.752C115.709 134.422 115.11 134.391 114.526 134.061L114.096 130.735L113.619 128.307L102.833 127.755L102.111 130.122L101.343 133.387C100.729 133.656 100.13 133.625 99.5151 133.894L96.9106 131.958L94.8747 130.653L87.0013 137.76L88.3921 139.934L90.0518 142.722C89.422 143.291 89.3913 143.89 89.061 144.474L85.7347 144.904L83.3072 145.381L82.7555 156.167L85.1217 156.889L88.3867 157.657C88.6557 158.271 88.6251 158.87 88.894 159.485L86.9584 162.089L85.3531 164.11L92.7445 172.298L94.9184 170.908L97.7068 169.248C98.2907 169.578 98.8899 169.609 99.4738 169.939L99.9044 173.265L100.381 175.693L111.167 176.245L111.889 173.878L112.657 170.613C113.271 170.344 113.87 170.375 114.485 170.106L117.089 172.042L119.11 173.647L127.298 166.256L125.908 164.082L124.248 161.293C124.578 160.709 124.908 160.125 124.939 159.526L128.265 159.096L130.693 158.619L131.245 147.833L128.878 147.111V147.111ZM127.819 156.069L122.68 156.707C122.304 158.19 121.628 159.657 120.652 161.109L123.134 165.442L118.725 169.422L114.669 166.511C113.125 167.333 111.596 167.855 110.083 168.078L108.923 173.126L102.931 172.819L102.293 167.68C100.81 167.304 99.3428 166.628 97.8907 165.652L93.5583 168.134L89.5783 163.725L92.4893 159.669C91.6671 158.125 91.1445 156.596 90.9215 155.083L85.8742 153.923L86.1807 147.931L91.32 147.293C91.6962 145.81 92.3721 144.343 93.3475 142.891L90.566 138.543L94.975 134.563L99.0316 137.474C100.576 136.652 102.104 136.129 103.618 135.906L105.077 130.874L111.069 131.181L111.707 136.32C113.19 136.696 114.657 137.372 116.109 138.348L120.442 135.866L124.422 140.275L121.511 144.331C122.333 145.875 122.855 147.404 123.078 148.917L128.126 150.077L127.819 156.069Z" fill="#D0D0D0"/>
<path d="M107.536 141.514C101.844 141.223 96.8049 145.771 96.5137 151.464C96.2225 157.156 100.771 162.195 106.464 162.486C112.156 162.777 117.195 158.229 117.486 152.536C117.777 146.844 113.229 141.805 107.536 141.514ZM106.617 159.49C102.422 159.276 99.2952 155.811 99.5098 151.617C99.7243 147.422 103.189 144.295 107.383 144.51C111.578 144.724 114.705 148.189 114.49 152.383C114.276 156.578 110.811 159.705 106.617 159.49Z" fill="#D0D0D0"/>
</g>
<g clip-path="url(#clip1_1_36)">
<path d="M158.156 168.718L155.955 167.361C155.908 166.846 156.077 166.415 156.029 165.9L158.079 164.467L159.746 163.38L156.334 155.591L154.405 156.079L151.962 156.614C151.615 156.23 151.185 156.062 150.838 155.678L151.333 153.14L151.576 151.249L143.822 148.219L142.718 149.774L141.361 151.974C140.846 152.021 140.415 151.853 139.9 151.9L138.467 149.85L137.296 148.4L129.807 151.68L130.295 153.608L130.829 156.052C130.23 156.314 130.062 156.745 129.678 157.092L127.14 156.597L125.249 156.354L122.219 164.108L123.774 165.212L125.974 166.569C126.021 167.084 125.853 167.514 125.9 168.029L123.85 169.463L122.184 170.55L125.596 178.338L127.524 177.851L129.968 177.316C130.314 177.699 130.745 177.868 131.092 178.252L130.597 180.789L130.354 182.681L138.108 185.711L139.212 184.156L140.569 181.955C141.084 181.908 141.514 182.077 142.029 182.029L143.463 184.079L144.55 185.746L152.338 182.334L151.851 180.405L151.316 177.962C151.699 177.615 152.083 177.269 152.252 176.838L154.789 177.333L156.681 177.576L159.711 169.822L158.156 168.718V168.718ZM155.2 175.011L151.286 174.226C150.65 175.219 149.798 176.127 148.731 176.952L149.491 180.725L145.297 182.562L143.039 179.445C141.71 179.67 140.465 179.68 139.304 179.475L137.227 182.884L132.919 181.2L133.704 177.286C132.711 176.65 131.802 175.798 130.978 174.731L127.205 175.491L125.368 171.297L128.485 169.039C128.26 167.71 128.25 166.465 128.455 165.304L125.046 163.227L126.73 158.919L130.644 159.704C131.28 158.711 132.131 157.802 133.199 156.978L132.223 153.121L136.417 151.284L138.675 154.401C140.004 154.175 141.25 154.165 142.411 154.371L144.703 151.046L149.011 152.73L148.226 156.644C149.219 157.28 150.127 158.131 150.952 159.199L154.725 158.438L156.562 162.632L153.445 164.89C153.67 166.22 153.68 167.465 153.475 168.626L156.884 170.703L155.2 175.011Z" fill="#D0D0D0"/>
<path d="M143.911 159.426C139.819 157.827 135.026 159.926 133.426 164.019C131.827 168.111 133.926 172.904 138.019 174.503C142.111 176.103 146.904 174.003 148.503 169.911C150.103 165.819 148.003 161.026 143.911 159.426ZM138.86 172.349C135.845 171.171 134.402 167.876 135.58 164.86C136.759 161.845 140.054 160.402 143.069 161.58C146.085 162.759 147.528 166.054 146.349 169.069C145.171 172.085 141.876 173.528 138.86 172.349Z" fill="#D0D0D0"/>
</g>
<path d="M108 87H138L136 90.5H110L108 87Z" fill="#D9D9D9"/>
<path d="M86 7H166L175 11.5L124.5 24.5L72 13L86 7Z" fill="#D9D9D9"/>
<defs>
<clipPath id="clip0_1_36">
<rect width="48" height="48" fill="white" transform="translate(84.2573 126.805) rotate(2.92814)"/>
</clipPath>
<clipPath id="clip1_1_36">
<rect width="37" height="37" fill="white" transform="translate(130.468 143) rotate(21.3457)"/>
</clipPath>
</defs>
</svg>
