<svg width="21" height="20" viewBox="0 0 21 20" fill="none" xmlns="http://www.w3.org/2000/svg">
<path d="M15.5 9.26672C16.9587 9.26672 18.3576 9.83213 19.3891 10.8386C20.4205 11.845 21 13.21 21 14.6334C21 16.0567 20.4205 17.4217 19.3891 18.4281C18.3576 19.4346 16.9587 20 15.5 20C14.0413 20 12.6424 19.4346 11.6109 18.4281C10.5795 17.4217 10 16.0567 10 14.6334C10 13.21 10.5795 11.845 11.6109 10.8386C12.6424 9.83213 14.0413 9.26672 15.5 9.26672V9.26672ZM15.5 11.2182L15.41 11.226C15.3101 11.2438 15.2181 11.2909 15.1463 11.361C15.0745 11.4311 15.0263 11.5208 15.008 11.6183L15 11.7061V14.1455H12.498L12.408 14.1543C12.3081 14.1721 12.2161 14.2191 12.1443 14.2892C12.0725 14.3593 12.0243 14.449 12.006 14.5465L11.998 14.6343L12.006 14.7222C12.0243 14.8196 12.0725 14.9094 12.1443 14.9795C12.2161 15.0495 12.3081 15.0966 12.408 15.1144L12.498 15.1222H15V17.5645L15.008 17.6523C15.0263 17.7498 15.0745 17.8396 15.1463 17.9096C15.2181 17.9797 15.3101 18.0268 15.41 18.0446L15.5 18.0524L15.59 18.0446C15.6899 18.0268 15.7819 17.9797 15.8537 17.9096C15.9255 17.8396 15.9737 17.7498 15.992 17.6523L16 17.5645V15.1212H18.504L18.594 15.1144C18.6939 15.0966 18.7859 15.0495 18.8577 14.9795C18.9295 14.9094 18.9777 14.8196 18.996 14.7222L19.004 14.6343L18.996 14.5465C18.9777 14.4489 18.9293 14.3591 18.8573 14.289C18.7853 14.2189 18.6931 14.1719 18.593 14.1543L18.503 14.1465H16V11.7071L15.992 11.6193C15.9739 11.5216 15.9258 11.4316 15.8539 11.3614C15.7821 11.2911 15.69 11.2439 15.59 11.226L15.5 11.2182ZM11.925 0.000975682C12.317 0.000945008 12.7023 0.100868 13.0426 0.290845C13.3829 0.480822 13.6664 0.754258 13.865 1.08406L14.679 2.43743H16.75C17.6118 2.43743 18.4383 2.7714 19.0477 3.36591C19.6572 3.96041 19.9997 4.76677 20 5.60765V10.0571C19.5539 9.6392 19.0492 9.28536 18.501 9.0062L18.5 5.60765C18.5 5.15477 18.3156 4.72045 17.9874 4.40022C17.6592 4.07999 17.2141 3.90008 16.75 3.90008H14.25C14.1193 3.90015 13.9908 3.86687 13.8773 3.80354C13.7638 3.74021 13.6692 3.64904 13.603 3.53905L12.571 1.82466C12.5048 1.71482 12.4104 1.62373 12.2971 1.56041C12.1838 1.49709 12.0556 1.46373 11.925 1.46363H8.122C8.01256 1.46372 7.90448 1.48717 7.80532 1.53234C7.70616 1.57752 7.61833 1.64332 7.548 1.72513L7.483 1.81295L6.39 3.55076C6.32298 3.65743 6.22904 3.74556 6.11717 3.80671C6.0053 3.86787 5.87923 3.90002 5.751 3.90008H3.251C3.0211 3.89995 2.79343 3.94403 2.581 4.02978C2.36856 4.11554 2.17553 4.2413 2.01292 4.39987C1.85031 4.55845 1.72131 4.74673 1.63331 4.95397C1.5453 5.1612 1.5 5.38333 1.5 5.60765V14.8773C1.5 15.8199 2.284 16.5849 3.25 16.5849H9.313C9.486 17.1049 9.725 17.5967 10.022 18.0485H3.25C2.38805 18.0485 1.5614 17.7144 0.951903 17.1197C0.34241 16.525 0 15.7184 0 14.8773V5.60765C0 4.7666 0.34241 3.95999 0.951903 3.36528C1.5614 2.77056 2.38805 2.43645 3.25 2.43645H5.33L6.205 1.04698C6.40619 0.72715 6.68804 0.462977 7.02364 0.279684C7.35925 0.0963918 7.7374 9.92652e-05 8.122 0H11.925V0.000975682ZM10 5.36371C10.9514 5.36365 11.8783 5.65766 12.6477 6.20354C13.4172 6.74943 13.9897 7.51914 14.283 8.40221C13.783 8.4949 13.303 8.64322 12.85 8.84032C12.6284 8.17773 12.1717 7.61409 11.5621 7.25083C10.9525 6.88756 10.23 6.74854 9.52469 6.85877C8.81938 6.969 8.17755 7.32125 7.71472 7.85212C7.25189 8.38299 6.99844 9.05762 7 9.7546C7 11.1499 8 12.3159 9.338 12.6106C9.17795 13.0744 9.07391 13.5548 9.028 14.0421C7.94789 13.8058 6.99486 13.1895 6.35107 12.3109C5.70727 11.4323 5.41785 10.353 5.53812 9.27935C5.65839 8.20567 6.17991 7.21288 7.00302 6.49072C7.82613 5.76856 8.89309 5.36768 10 5.36469V5.36371Z" fill="#726A6A"/>
</svg>
